<svg width="71" height="34" viewBox="0 0 71 34" fill="none" xmlns="http://www.w3.org/2000/svg">
<path id="Vector" fill-rule="evenodd" clip-rule="evenodd" d="M68.3327 14.7126C66.0952 13.0868 61.8135 9.35234 57.7893 6.10077C50.4813 0.177149 50.9803 0.515173 50.1594 1.33611C48.936 2.55947 48.5014 6.31003 49.0648 10.7367L49.1936 11.6703C39.9218 11.8312 37.7326 12.0888 24.7908 13.1834C9.30564 14.5033 7.56718 15.9842 2.72203 16.3866C-0.674395 16.6603 0.774317 19.3002 4.38001 19.3968C9.20906 19.5255 19.0764 20.604 26.7063 21.8274C28.7184 22.1654 49.3545 25.095 49.3545 25.095C49.3223 31.9523 49.2097 32.7088 50.2238 33.3044C50.6262 33.5459 50.7872 33.4815 51.6886 32.6122C54.5216 29.9402 65.0489 23.3405 68.9444 19.9601C71.9867 17.272 70.8116 16.5154 68.3327 14.7126ZM66.7874 18.3827C63.6485 20.0406 55.9381 25.3043 53.2017 27.6544L51.592 29.0388C52.3485 24.0005 52.8636 22.5195 47.9058 21.8435C41.8212 21.0064 23.3582 18.2539 21.5875 17.9963C16.179 17.2237 16.179 17.2237 19.9134 16.9339C27.8009 16.3545 48.0668 14.5033 49.8374 14.6321C50.1433 14.4228 51.8817 16.2579 51.4471 9.41672C51.3183 7.51729 51.3022 6.02029 51.4149 6.06859C51.8173 6.27783 62.3125 14.8735 65.8377 17.2076C67.1415 18.0929 67.2059 18.1573 66.7874 18.3827Z" fill="white"/>
</svg>
